<?xml version="1.0" encoding="utf-8"?>
<!-- Generator: Adobe Illustrator 18.1.1, SVG Export Plug-In . SVG Version: 6.00 Build 0)  -->
<svg version="1.1" id="Layer_1" xmlns="http://www.w3.org/2000/svg" xmlns:xlink="http://www.w3.org/1999/xlink" x="0px" y="0px"
	 viewBox="0 0 163.8 132" enable-background="new 0 0 163.8 132" xml:space="preserve">
<g>
	<path fill="none" stroke="#D31C5C" stroke-width="2" d="M97.4,95.3c0,4.5,0,6.6,0,6.6H45.7V50.1c0,0,2.3,0,6,0"/>
	<path fill="none" stroke="#D31C5C" stroke-width="2" d="M107.2,86.4c0,4,0,6.1,0,6.1H55.4l0.3-51.7c0,0,2.8,0,7.2,0"/>
	<rect x="66.4" y="30.8" fill="none" stroke="#D31C5C" stroke-width="2" width="51.7" height="51.7"/>
	<path fill="#D31C5C" d="M106.3,71.3h-0.4v-0.2h1v0.2h-0.4v1.1h-0.2V71.3z M107.2,71.2h0.2l0.5,0.7l0.4-0.7h0.2v1.3h-0.2v-1
		l-0.5,0.7h0l-0.5-0.7v1h-0.2V71.2z"/>
	<g>
		<path fill="none" stroke="#D31C5C" stroke-width="2" stroke-miterlimit="10" d="M79,58v13.6h0.1h0.1c0.5-2.5,3.5-10.7,12.2-10.7
			c8.7,0,11.7,8.2,12.2,10.7h0.1h0.1V58H79z"/>
		<path fill="none" stroke="#D31C5C" stroke-width="2" stroke-miterlimit="10" d="M103.8,41.1h-0.1c-0.5,2.5-3.5,10.7-12.2,10.7
			c-8.7,0-11.7-8.2-12.2-10.7h-0.1H79v13.6h25V41.1H103.8z"/>
	</g>
</g>
</svg>
