<?xml version="1.0" encoding="utf-8"?>
<!-- Generator: Adobe Illustrator 18.1.1, SVG Export Plug-In . SVG Version: 6.00 Build 0)  -->
<svg version="1.1" id="Layer_1" xmlns="http://www.w3.org/2000/svg" xmlns:xlink="http://www.w3.org/1999/xlink" x="0px" y="0px"
	 viewBox="0 0 118 168" enable-background="new 0 0 118 168" xml:space="preserve">
<g>
	<polygon fill="#D31C5C" points="82,138.8 3.2,138.8 3.2,59.9 11.2,59.9 11.2,56.8 0,56.8 0,142 85.2,142 85.2,130 82,130 	"/>
	<polygon fill="#D31C5C" points="97.4,124 18.6,124 19,45.1 28.9,45.1 28.9,42 15.9,42 15.4,127.2 100.6,127.2 100.7,115.9 
		97.5,115.9 	"/>
	<path fill="#D31C5C" d="M32.8,26v85.2H118V26H32.8z M114.8,108.1H36V29.2h78.9L114.8,108.1L114.8,108.1z"/>
	<polygon fill="#D31C5C" points="99.4,92.2 100.1,93.3 100.1,93.3 100.8,92.2 100.8,93.7 101.1,93.7 101.1,91.7 100.8,91.7 
		100.1,92.8 99.4,91.7 99.1,91.7 99.1,93.7 99.4,93.7 	"/>
	<polygon fill="#D31C5C" points="97.7,93.7 98,93.7 98,92 98.6,92 98.6,91.7 97,91.7 97,92 97.7,92 	"/>
	<path fill="#D31C5C" d="M56.4,92.7C56.5,92.1,59.9,77,74.2,77C88.6,77,91.9,92,92,92.7l0.3,1.3h3.3V69.3H52.8V94h3.3L56.4,92.7z
		 M56,72.4h36.4v12.7c-2.8-5.1-8.2-11.2-18.2-11.2S58.8,80,56,85.1V72.4z"/>
	<path fill="#D31C5C" d="M95.6,42.4h-3.3L92,43.7c-0.1,0.6-3.4,15.7-17.8,15.7c-14.3,0-17.7-15-17.8-15.7l-0.3-1.3h-3.3v24.7h42.8
		V42.4z M92.4,64H56V51.3c2.8,5.1,8.2,11.2,18.2,11.2s15.4-6.1,18.2-11.2C92.4,51.3,92.4,64,92.4,64z"/>
</g>
</svg>
