<?xml version="1.0" encoding="utf-8"?>
<!-- Generator: Adobe Illustrator 18.1.1, SVG Export Plug-In . SVG Version: 6.00 Build 0)  -->
<svg version="1.1" id="Layer_1" xmlns="http://www.w3.org/2000/svg" xmlns:xlink="http://www.w3.org/1999/xlink" x="0px" y="0px"
	 viewBox="0 0 612 792" enable-background="new 0 0 612 792" xml:space="preserve">
<line fill="#FFFFFF" x1="224.2" y1="493.9" x2="383" y2="493.9"/>
<path fill="#FFFFFF" d="M299.5,506.2c3.9,0,11,3.2,11,7.1c0,3.9-3.2,7.1-7.1,7.1c-3.9,0-7.1-3.2-7.1-7.1
	C296.3,509.4,295.5,506.2,299.5,506.2z"/>
<polyline fill="#FFFFFF" points="254.8,351.9 303,406.8 425.6,291 "/>
<path fill="#FFFFFF" d="M382.6,312.3v-34.7c0-14.9-12-26.9-26.9-26.9H251.1c-14.9,0-26.9,12-26.9,26.9v225.7
	c0,14.9,12,26.9,26.9,26.9h105c14.9,0,26.9-12,26.9-26.9V353.8"/>
</svg>
