<?xml version="1.0" encoding="utf-8"?>
<!-- Generator: Adobe Illustrator 18.1.1, SVG Export Plug-In . SVG Version: 6.00 Build 0)  -->
<svg version="1.1" id="Layer_1" xmlns="http://www.w3.org/2000/svg" xmlns:xlink="http://www.w3.org/1999/xlink" x="0px" y="0px"
	 viewBox="0 0 153 168" enable-background="new 0 0 153 168" xml:space="preserve">
<path fill="#D31C5C" d="M153,53.8h-40V37.1H77.9v-8h-2.7v8H40v16.7H0v30.1h22.4v55h108.3v-55H153V53.8z M110.3,39.9v13.9H77.9V39.9
	H110.3z M42.7,39.9h32.4v13.9H42.7V39.9z M2.7,81.2V56.5H40h35.1v24.7H22.4H2.7z M25.1,83.9h50v52.2h-50
	C25.1,136.1,25.1,83.9,25.1,83.9z M127.9,136.2h-50V83.9h50V136.2z M150.3,81.2h-19.6H77.9V56.5H113h37.3V81.2z"/>
</svg>
