<?xml version="1.0" encoding="utf-8"?>
<!-- Generator: Adobe Illustrator 18.1.1, SVG Export Plug-In . SVG Version: 6.00 Build 0)  -->
<svg version="1.1" id="Layer_1" xmlns="http://www.w3.org/2000/svg" xmlns:xlink="http://www.w3.org/1999/xlink" x="0px" y="0px"
	 viewBox="0 0 170 168" enable-background="new 0 0 170 168" xml:space="preserve">
<g>
	<path fill="#D31C5C" d="M38.8,102.8l-28.2-3.5l5.8-6.5L0,75.1l8.5-6.3l30,10.4c4-2,22.3-10.9,30.7-14.9L36,31.1l14.5-7.8l54.1,25.1
		c4.6-2.3,29.5-14.6,41.3-14.9c12.8-0.3,22.4,4.5,23.8,8.9c0.6,1.8,1.1,3.4-37.8,22.1c-18.6,9-37.6,17.6-37.8,17.7L38.8,102.8z
		 M16.9,97l21.5,2.7l54.9-20c26.3-12,68.8-32.1,73.8-36.6c-1.7-2.5-9.3-6.4-20.5-6.2c-12.1,0.3-40.3,14.7-40.6,14.9l-0.7,0.4
		L50.8,26.8l-9.5,5l33.3,33.3l-2,1c-12.7,6.1-32,15.5-33.1,16.1l-0.6,0.4l-0.7-0.2L9,72.3l-4.3,3.2l16,17.1L16.9,97z"/>
	<rect x="7.1" y="141.6" fill="#D31C5C" width="157.4" height="3.1"/>
</g>
</svg>
