<?xml version="1.0" encoding="utf-8"?>
<!-- Generator: Adobe Illustrator 18.1.1, SVG Export Plug-In . SVG Version: 6.00 Build 0)  -->
<svg version="1.1" id="Layer_1" xmlns="http://www.w3.org/2000/svg" xmlns:xlink="http://www.w3.org/1999/xlink" x="0px" y="0px"
	 viewBox="0 0 153 168" enable-background="new 0 0 153 168" xml:space="preserve">
<path fill="#D31C5B" d="M153,39.1h-40.2V13.5H77.5V0h-2v13.5H40.2v25.6H0v44.2h22.5V168h108V83.3H153V39.1z M110.8,15.5v23.7H77.5
	V15.5H110.8z M42.2,15.5h33.3v23.7H42.2V15.5z M2,81.3V41.1h38.2h35.3v40.2h-53H2z M24.5,83.3h51.1V166H24.5V83.3z M128.5,166H77.5
	V83.3h51.1V166z M151,81.3h-20.5h-53V41.1h35.3H151V81.3z"/>
</svg>
