<?xml version="1.0" encoding="utf-8"?>
<!-- Generator: Adobe Illustrator 18.1.1, SVG Export Plug-In . SVG Version: 6.00 Build 0)  -->
<svg version="1.1" id="Layer_1" xmlns="http://www.w3.org/2000/svg" xmlns:xlink="http://www.w3.org/1999/xlink" x="0px" y="0px"
	 viewBox="0 0 92 168" enable-background="new 0 0 92 168" xml:space="preserve">
<g>
	<rect x="1" y="129.5" fill="#D31C5C" width="71.2" height="2"/>
	<circle fill="#D31C5C" cx="36.6" cy="139.1" r="3.2"/>
	<polygon fill="#D31C5C" points="36.3,92.8 14,67.4 15.5,66.1 36.4,90 90.6,38.7 92,40.1 	"/>
	<path fill="#D31C5C" d="M60.1,147.7h-47c-7.2,0-13.1-5.9-13.1-13.1V33.4c0-7.2,5.9-13.1,13.1-13.1h47.1c7.2,0,13.1,5.9,13.1,13.1
		V49h-2V33.4c0-6.1-5-11.1-11.1-11.1H13.1C6.9,22.3,2,27.2,2,33.4v101.3c0,6.1,5,11.1,11.1,11.1h47.1c6.1,0,11.1-5,11.1-11.1V67.6h2
		v67.1C73.2,141.8,67.3,147.7,60.1,147.7z"/>
</g>
</svg>
