<?xml version="1.0" encoding="utf-8"?>
<!-- Generator: Adobe Illustrator 18.1.1, SVG Export Plug-In . SVG Version: 6.00 Build 0)  -->
<svg version="1.1" id="Layer_1" xmlns="http://www.w3.org/2000/svg" xmlns:xlink="http://www.w3.org/1999/xlink" x="0px" y="0px"
	 viewBox="-229 313 153 168" enable-background="new -229 313 153 168" xml:space="preserve">
<path fill="none" stroke="#D31E4A" stroke-miterlimit="10" d="M-221.3,409.2h57.4V481h-57.4V409.2z M-141.8,481h57.4v-71.8h-57.4
	V481z M-159.9,481h14.1V368.1h-14.1V481z M-219.3,340.4c0,0-2.2-31.7,34.2-26.4c0,0,17,4,32.2,33.9c0,0,19.2-36.9,43.7-34.9
	c0,0,29.1,0.4,22.5,34.9c0,0-6.1,15.9-21.2,15.9h-89.2C-197.1,363.8-216.7,363-219.3,340.4z M-144.8,355.3h33.6
	c9,0,16.2-7.3,16.2-16.3s-7.3-16.3-16.2-16.3C-111.2,322.8-126,319.6-144.8,355.3z M-210.2,338.6c0,9,7.3,16.3,16.2,16.3h33.6
	c0-0.1-0.1-0.1-0.1-0.2h0.3c-18.8-35.7-33.6-32.5-33.6-32.5c-5.1,0-9.6,2.3-12.6,6C-208.8,331-210.2,334.7-210.2,338.6z M-229,375.2
	v21.3c0,3.9,3.2,7.1,7.1,7.1h58v-35.5h-58C-225.8,368.1-229,371.3-229,375.2z M-83.1,368.1h-58.7v35.6h58.7c3.9,0,7.1-3.2,7.1-7.1
	v-21.4C-76,371.3-79.2,368.1-83.1,368.1z"/>
</svg>
